<?xml version="1.0" encoding="UTF-8"?>
<svg width="500" height="400" version="1.1" xmlns="http://www.w3.org/2000/svg">
 <g fill="none" stroke-width="3">
  <g stroke="#4e9a06" stroke-dashoffset="6.3">
   <path d="m343.94 230.12-150.17 62.548"/>
   <path d="m338.26 216.5-150.17 62.548"/>
   <path d="m349.6 243.74-150.17 62.548"/>
   <path d="m355.28 257.36-150.17 62.548"/>
   <path d="m360.95 270.99-150.17 62.548"/>
   <path d="m366.63 284.61-150.17 62.548"/>
  </g>
  <g stroke="#204a87" stroke-dashoffset="6.3">
   <path d="m103.19 137.83 109.34-84.333"/>
   <path d="m117.51 156.38 109.34-84.333"/>
   <path d="m131.82 174.94 109.34-84.333"/>
   <path d="m146.13 193.5 109.34-84.333"/>
   <path d="m160.45 212.06 109.34-84.333"/>
   <path d="m193.07 216.5 91.038-70.214"/>
   <path d="m231.44 216.5 66.975-51.655"/>
   <path d="m269.82 216.5 42.913-33.097"/>
   <path d="m308.19 216.5 18.851-14.539"/>
  </g>
  <g stroke="#babdb6" stroke-dashoffset="6.3" stroke-linecap="round">
   <path d="m82.153 110.54 81.718 105.95 65.828 162.44"/>
   <path d="m191.5 26.211 146.76 190.29 41.604 99.878"/>
   <path d="m105.29 27.482 145.78 189.02 66.488 159.63"/>
  </g>
  <path d="m121.08 47.967 65.409 84.808" stroke="#204a87" stroke-dasharray="6, 6"/>
  <path d="m269.63 261.07 37.941 91.082" stroke="#4e9a06" stroke-dasharray="6, 6"/>
 </g>
 <path d="m185.67 123.81 4.1894 13.326-11.825-7.4375c3.5332-0.0798 6.6096-2.4678 7.6354-5.8889z" fill="#204a87"/>
 <g fill="none" stroke-dashoffset="6.3">
  <path d="m319.84 216.5c0 4.1618-2.2203 8.0076-5.8246 10.088s-8.0449 2.081-11.649 0-5.8246-5.9266-5.8246-10.088" stroke="#888a85" stroke-opacity=".5" stroke-width="3"/>
  <g stroke="#babdb6" stroke-opacity=".5" stroke-width="3">
   <path d="m204.72 216.5c0 4.1618-2.2203 8.0076-5.8246 10.088s-8.0449 2.081-11.649 0-5.8246-5.9266-5.8246-10.088"/>
   <path d="m219.43 216.5c0 9.4156-5.0231 18.117-13.177 22.824s-18.201 4.7079-26.353 0c-8.1531-4.7079-13.177-13.409-13.177-22.824"/>
   <path d="m234.23 216.5c0 14.702-7.8432 28.287-20.576 35.638-12.732 7.3511-28.419 7.3511-41.15 0s-20.576-20.936-20.576-35.638"/>
  </g>
  <g stroke-width="3">
   <path d="m248.95 216.5c0 19.961-10.649 38.405-27.936 48.386-17.286 9.9805-38.585 9.9805-55.869 0-17.284-9.9806-27.936-28.425-27.936-48.386" stroke="#888a85" stroke-opacity=".5"/>
   <path d="m243.09 216.5c0 4.1618-2.2203 8.0076-5.8246 10.088s-8.0449 2.081-11.649 0-5.8246-5.9266-5.8246-10.088" stroke="#babdb6" stroke-opacity=".5"/>
   <path d="m257.8 216.5c0 9.4156-5.0231 18.117-13.177 22.824s-18.201 4.7079-26.353 0c-8.1531-4.7079-13.177-13.409-13.177-22.824" stroke="#babdb6" stroke-opacity=".5"/>
   <path d="m272.6 216.5c0 14.702-7.8432 28.287-20.576 35.638-12.732 7.3511-28.419 7.3511-41.15 0s-20.576-20.936-20.576-35.638" stroke="#888a85" stroke-opacity=".5"/>
   <path d="m281.47 216.5c0 4.1618-2.2203 8.0076-5.8246 10.088s-8.0449 2.081-11.649 0-5.8246-5.9266-5.8246-10.088" stroke="#babdb6" stroke-opacity=".5"/>
   <path d="m296.18 216.5c0 9.4156-5.0231 18.117-13.177 22.824s-18.201 4.7079-26.353 0c-8.1531-4.7079-13.177-13.409-13.177-22.824" stroke="#888a85" stroke-opacity=".5"/>
  </g>
  <path d="m57.443 216.5h387.24" stroke="#000" stroke-linecap="round" stroke-width="2"/>
 </g>
 <g fill="#edd400">
  <circle cx="308.19" cy="216.5" r="5"/>
  <g stroke-width="3">
   <circle cx="193.07" cy="216.5" r="5"/>
   <circle cx="231.44" cy="216.5" r="5"/>
   <circle cx="269.82" cy="216.5" r="5"/>
  </g>
 </g>
 <path d="m311.14 348.01c-1.8938 3.0281-5.4921 4.5178-8.9207 3.6606l9.4379 10.299-0.51721-13.96 5e-5 2.3e-4" fill="#4e9a06"/>
</svg>
